<svg id="visual" viewBox="0 0 900 600" width="900" height="600" xmlns="http://www.w3.org/2000/svg" xmlns:xlink="http://www.w3.org/1999/xlink" version="1.1"><path d="M0 445L21.5 445C43 445 86 445 128.8 449.8C171.7 454.7 214.3 464.3 257.2 469C300 473.7 343 473.3 385.8 463.5C428.7 453.7 471.3 434.3 514.2 430C557 425.7 600 436.3 642.8 443.8C685.7 451.3 728.3 455.7 771.2 458C814 460.3 857 460.7 878.5 460.8L900 461L900 601L878.5 601C857 601 814 601 771.2 601C728.3 601 685.7 601 642.8 601C600 601 557 601 514.2 601C471.3 601 428.7 601 385.8 601C343 601 300 601 257.2 601C214.3 601 171.7 601 128.8 601C86 601 43 601 21.5 601L0 601Z" fill="#0066ff"></path><path d="M0 494L21.5 493C43 492 86 490 128.8 488.2C171.7 486.3 214.3 484.7 257.2 481.2C300 477.7 343 472.3 385.8 472.2C428.7 472 471.3 477 514.2 480.8C557 484.7 600 487.3 642.8 479.8C685.7 472.3 728.3 454.7 771.2 451.5C814 448.3 857 459.7 878.5 465.3L900 471L900 601L878.5 601C857 601 814 601 771.2 601C728.3 601 685.7 601 642.8 601C600 601 557 601 514.2 601C471.3 601 428.7 601 385.8 601C343 601 300 601 257.2 601C214.3 601 171.7 601 128.8 601C86 601 43 601 21.5 601L0 601Z" fill="#2059ff"></path><path d="M0 519L21.5 517.2C43 515.3 86 511.7 128.8 504C171.7 496.3 214.3 484.7 257.2 481C300 477.3 343 481.7 385.8 488.3C428.7 495 471.3 504 514.2 510.5C557 517 600 521 642.8 513.8C685.7 506.7 728.3 488.3 771.2 487.8C814 487.3 857 504.7 878.5 513.3L900 522L900 601L878.5 601C857 601 814 601 771.2 601C728.3 601 685.7 601 642.8 601C600 601 557 601 514.2 601C471.3 601 428.7 601 385.8 601C343 601 300 601 257.2 601C214.3 601 171.7 601 128.8 601C86 601 43 601 21.5 601L0 601Z" fill="#3849ff"></path><path d="M0 554L21.5 552.7C43 551.3 86 548.7 128.8 548C171.7 547.3 214.3 548.7 257.2 543.3C300 538 343 526 385.8 526.3C428.7 526.7 471.3 539.3 514.2 542C557 544.7 600 537.3 642.8 535.3C685.7 533.3 728.3 536.7 771.2 537.7C814 538.7 857 537.3 878.5 536.7L900 536L900 601L878.5 601C857 601 814 601 771.2 601C728.3 601 685.7 601 642.8 601C600 601 557 601 514.2 601C471.3 601 428.7 601 385.8 601C343 601 300 601 257.2 601C214.3 601 171.7 601 128.8 601C86 601 43 601 21.5 601L0 601Z" fill="#4f34ff"></path><path d="M0 540L21.5 543C43 546 86 552 128.8 555.8C171.7 559.7 214.3 561.3 257.2 558.7C300 556 343 549 385.8 547.7C428.7 546.3 471.3 550.7 514.2 552.2C557 553.7 600 552.3 642.8 549.8C685.7 547.3 728.3 543.7 771.2 545C814 546.3 857 552.7 878.5 555.8L900 559L900 601L878.5 601C857 601 814 601 771.2 601C728.3 601 685.7 601 642.8 601C600 601 557 601 514.2 601C471.3 601 428.7 601 385.8 601C343 601 300 601 257.2 601C214.3 601 171.7 601 128.8 601C86 601 43 601 21.5 601L0 601Z" fill="#6600ff"></path></svg>