<svg id="visual" viewBox="0 0 1920 1080" width="1920" height="1080" xmlns="http://www.w3.org/2000/svg" xmlns:xlink="http://www.w3.org/1999/xlink" version="1.1"><path d="M0 804L35.5 803.8C71 803.7 142 803.3 213.2 812.8C284.3 822.3 355.7 841.7 426.8 851C498 860.3 569 859.7 640 846C711 832.3 782 805.7 853.2 806.8C924.3 808 995.7 837 1066.8 837.2C1138 837.3 1209 808.7 1280 792.8C1351 777 1422 774 1493.2 783.2C1564.3 792.3 1635.7 813.7 1706.8 833.2C1778 852.7 1849 870.3 1884.5 879.2L1920 888L1920 1081L1884.5 1081C1849 1081 1778 1081 1706.8 1081C1635.7 1081 1564.3 1081 1493.2 1081C1422 1081 1351 1081 1280 1081C1209 1081 1138 1081 1066.8 1081C995.7 1081 924.3 1081 853.2 1081C782 1081 711 1081 640 1081C569 1081 498 1081 426.8 1081C355.7 1081 284.3 1081 213.2 1081C142 1081 71 1081 35.5 1081L0 1081Z" fill="#fa7268"></path><path d="M0 877L35.5 874.2C71 871.3 142 865.7 213.2 863.8C284.3 862 355.7 864 426.8 861.8C498 859.7 569 853.3 640 864.8C711 876.3 782 905.7 853.2 909.8C924.3 914 995.7 893 1066.8 884.7C1138 876.3 1209 880.7 1280 890C1351 899.3 1422 913.7 1493.2 916.3C1564.3 919 1635.7 910 1706.8 904.7C1778 899.3 1849 897.7 1884.5 896.8L1920 896L1920 1081L1884.5 1081C1849 1081 1778 1081 1706.8 1081C1635.7 1081 1564.3 1081 1493.2 1081C1422 1081 1351 1081 1280 1081C1209 1081 1138 1081 1066.8 1081C995.7 1081 924.3 1081 853.2 1081C782 1081 711 1081 640 1081C569 1081 498 1081 426.8 1081C355.7 1081 284.3 1081 213.2 1081C142 1081 71 1081 35.5 1081L0 1081Z" fill="#e34c67"></path><path d="M0 952L35.5 952.7C71 953.3 142 954.7 213.2 955C284.3 955.3 355.7 954.7 426.8 965.8C498 977 569 1000 640 1010.7C711 1021.3 782 1019.7 853.2 1018C924.3 1016.3 995.7 1014.7 1066.8 1010.3C1138 1006 1209 999 1280 987.5C1351 976 1422 960 1493.2 959.7C1564.3 959.3 1635.7 974.7 1706.8 972.7C1778 970.7 1849 951.3 1884.5 941.7L1920 932L1920 1081L1884.5 1081C1849 1081 1778 1081 1706.8 1081C1635.7 1081 1564.3 1081 1493.2 1081C1422 1081 1351 1081 1280 1081C1209 1081 1138 1081 1066.8 1081C995.7 1081 924.3 1081 853.2 1081C782 1081 711 1081 640 1081C569 1081 498 1081 426.8 1081C355.7 1081 284.3 1081 213.2 1081C142 1081 71 1081 35.5 1081L0 1081Z" fill="#c62368"></path></svg>